<?xml version="1.0" encoding="UTF-8" standalone="no"?>
<svg width="86px" height="86px" viewBox="0 0 86 86" version="1.1" xmlns="http://www.w3.org/2000/svg" xmlns:xlink="http://www.w3.org/1999/xlink">
    <!-- Generator: Sketch 3.8.3 (29802) - http://www.bohemiancoding.com/sketch -->
    <title>logo</title>
    <desc>Created with Sketch.</desc>
    <defs></defs>
    <g id="Page-1" stroke="none" stroke-width="1" fill="none" fill-rule="evenodd">
        <g id="Desktop-HD" transform="translate(-396.000000, -220.000000)" fill="#5CCECE">
            <g id="logo" transform="translate(396.000000, 220.000000)">
                <g id="logo-copy" opacity="0.800000012" transform="translate(43.000000, 43.000000) rotate(-45.000000) translate(-43.000000, -43.000000) translate(13.000000, 13.000000)">
                    <rect id="Rectangle-13" x="0" y="-5.68434189e-14" width="6" height="12"></rect>
                    <rect id="Rectangle-13-Copy" x="9" y="6" width="6" height="24"></rect>
                    <rect id="Rectangle-13-Copy-2" x="18" y="12" width="6" height="36"></rect>
                    <rect id="Rectangle-13-Copy-3" x="27" y="-5.68434189e-14" width="6" height="60"></rect>
                    <rect id="Rectangle-13-Copy-4" x="36" y="12" width="6" height="36"></rect>
                    <rect id="Rectangle-13-Copy-5" x="45" y="30" width="6" height="24"></rect>
                    <rect id="Rectangle-13-Copy-6" x="54" y="48" width="6" height="12"></rect>
                </g>
                <g opacity="0.400000006" transform="translate(43.000000, 43.000000) rotate(-315.000000) translate(-43.000000, -43.000000) translate(13.000000, 13.000000)">
                    <rect id="Rectangle-13" x="0" y="0" width="6" height="12"></rect>
                    <rect id="Rectangle-13-Copy" x="9" y="6" width="6" height="24"></rect>
                    <rect id="Rectangle-13-Copy-2" x="18" y="12" width="6" height="36"></rect>
                    <rect id="Rectangle-13-Copy-3" x="27" y="0" width="6" height="60"></rect>
                    <rect id="Rectangle-13-Copy-4" x="36" y="12" width="6" height="36"></rect>
                    <rect id="Rectangle-13-Copy-5" x="45" y="30" width="6" height="24"></rect>
                    <rect id="Rectangle-13-Copy-6" x="54" y="48" width="6" height="12"></rect>
                </g>
            </g>
        </g>
    </g>
</svg>